<?xml version="1.0" encoding="utf-8" standalone="no"?>
<!DOCTYPE svg PUBLIC "-//W3C//DTD SVG 1.1//EN"
  "http://www.w3.org/Graphics/SVG/1.1/DTD/svg11.dtd">
<svg xmlns:xlink="http://www.w3.org/1999/xlink" width="460.8pt" height="345.6pt" viewBox="0 0 460.8 345.6" xmlns="http://www.w3.org/2000/svg" version="1.1">
 <metadata>
  <rdf:RDF xmlns:dc="http://purl.org/dc/elements/1.1/" xmlns:cc="http://creativecommons.org/ns#" xmlns:rdf="http://www.w3.org/1999/02/22-rdf-syntax-ns#">
   <cc:Work>
    <dc:type rdf:resource="http://purl.org/dc/dcmitype/StillImage"/>
    <dc:date>2025-10-25T12:49:44.223415</dc:date>
    <dc:format>image/svg+xml</dc:format>
    <dc:creator>
     <cc:Agent>
      <dc:title>Matplotlib v3.10.7, https://matplotlib.org/</dc:title>
     </cc:Agent>
    </dc:creator>
   </cc:Work>
  </rdf:RDF>
 </metadata>
 <defs>
  <style type="text/css">*{stroke-linejoin: round; stroke-linecap: butt}</style>
 </defs>
 <g id="figure_1">
  <g id="patch_1">
   <path d="M 0 345.6 
L 460.8 345.6 
L 460.8 0 
L 0 0 
z
" style="fill: #ffffff"/>
  </g>
  <g id="axes_1">
   <g id="patch_2">
    <path d="M 57.6 307.584 
L 414.72 307.584 
L 414.72 41.472 
L 57.6 41.472 
z
" style="fill: #ffffff"/>
   </g>
   <g id="PathCollection_1">
    <defs>
     <path id="mf2a25fc1d9" d="M 0 0.5 
C 0.132602 0.5 0.25979 0.447317 0.353553 0.353553 
C 0.447317 0.25979 0.5 0.132602 0.5 0 
C 0.5 -0.132602 0.447317 -0.25979 0.353553 -0.353553 
C 0.25979 -0.447317 0.132602 -0.5 0 -0.5 
C -0.132602 -0.5 -0.25979 -0.447317 -0.353553 -0.353553 
C -0.447317 -0.25979 -0.5 -0.132602 -0.5 0 
C -0.5 0.132602 -0.447317 0.25979 -0.353553 0.353553 
C -0.25979 0.447317 -0.132602 0.5 0 0.5 
z
" style="stroke: #ff0000; stroke-opacity: 0.25"/>
    </defs>
    <g clip-path="url(#p4c626bdb32)">
     <use xlink:href="#mf2a25fc1d9" x="73.832727" y="291.224046" style="fill: #ff0000; fill-opacity: 0.25; stroke: #ff0000; stroke-opacity: 0.25"/>
     <use xlink:href="#mf2a25fc1d9" x="116.618965" y="268.334297" style="fill: #ff0000; fill-opacity: 0.25; stroke: #ff0000; stroke-opacity: 0.25"/>
     <use xlink:href="#mf2a25fc1d9" x="228.911816" y="194.760007" style="fill: #ff0000; fill-opacity: 0.25; stroke: #ff0000; stroke-opacity: 0.25"/>
     <use xlink:href="#mf2a25fc1d9" x="229.711834" y="198.96682" style="fill: #ff0000; fill-opacity: 0.25; stroke: #ff0000; stroke-opacity: 0.25"/>
     <use xlink:href="#mf2a25fc1d9" x="341.600996" y="83.102451" style="fill: #ff0000; fill-opacity: 0.25; stroke: #ff0000; stroke-opacity: 0.25"/>
     <use xlink:href="#mf2a25fc1d9" x="181.459789" y="223.83106" style="fill: #ff0000; fill-opacity: 0.25; stroke: #ff0000; stroke-opacity: 0.25"/>
     <use xlink:href="#mf2a25fc1d9" x="342.905901" y="115.721457" style="fill: #ff0000; fill-opacity: 0.25; stroke: #ff0000; stroke-opacity: 0.25"/>
     <use xlink:href="#mf2a25fc1d9" x="398.487273" y="76.526387" style="fill: #ff0000; fill-opacity: 0.25; stroke: #ff0000; stroke-opacity: 0.25"/>
     <use xlink:href="#mf2a25fc1d9" x="160.133093" y="237.399898" style="fill: #ff0000; fill-opacity: 0.25; stroke: #ff0000; stroke-opacity: 0.25"/>
     <use xlink:href="#mf2a25fc1d9" x="198.691085" y="210.065714" style="fill: #ff0000; fill-opacity: 0.25; stroke: #ff0000; stroke-opacity: 0.25"/>
    </g>
   </g>
   <g id="PathCollection_2">
    <defs>
     <path id="m1f66aed302" d="M 0 0.5 
C 0.132602 0.5 0.25979 0.447317 0.353553 0.353553 
C 0.447317 0.25979 0.5 0.132602 0.5 0 
C 0.5 -0.132602 0.447317 -0.25979 0.353553 -0.353553 
C 0.25979 -0.447317 0.132602 -0.5 0 -0.5 
C -0.132602 -0.5 -0.25979 -0.447317 -0.353553 -0.353553 
C -0.447317 -0.25979 -0.5 -0.132602 -0.5 0 
C -0.5 0.132602 -0.447317 0.25979 -0.353553 0.353553 
C -0.25979 0.447317 -0.132602 0.5 0 0.5 
z
" style="stroke: #0000ff; stroke-opacity: 0.25"/>
    </defs>
    <g clip-path="url(#p4c626bdb32)">
     <use xlink:href="#m1f66aed302" x="73.832727" y="265.305141" style="fill: #0000ff; fill-opacity: 0.25; stroke: #0000ff; stroke-opacity: 0.25"/>
     <use xlink:href="#m1f66aed302" x="116.618965" y="278.598727" style="fill: #0000ff; fill-opacity: 0.25; stroke: #0000ff; stroke-opacity: 0.25"/>
     <use xlink:href="#m1f66aed302" x="228.911816" y="207.928162" style="fill: #0000ff; fill-opacity: 0.25; stroke: #0000ff; stroke-opacity: 0.25"/>
     <use xlink:href="#m1f66aed302" x="229.711834" y="204.486826" style="fill: #0000ff; fill-opacity: 0.25; stroke: #0000ff; stroke-opacity: 0.25"/>
     <use xlink:href="#m1f66aed302" x="341.600996" y="99.525887" style="fill: #0000ff; fill-opacity: 0.25; stroke: #0000ff; stroke-opacity: 0.25"/>
     <use xlink:href="#m1f66aed302" x="181.459789" y="229.84826" style="fill: #0000ff; fill-opacity: 0.25; stroke: #0000ff; stroke-opacity: 0.25"/>
     <use xlink:href="#m1f66aed302" x="342.905901" y="113.63373" style="fill: #0000ff; fill-opacity: 0.25; stroke: #0000ff; stroke-opacity: 0.25"/>
     <use xlink:href="#m1f66aed302" x="398.487273" y="98.069147" style="fill: #0000ff; fill-opacity: 0.25; stroke: #0000ff; stroke-opacity: 0.25"/>
     <use xlink:href="#m1f66aed302" x="160.133093" y="243.883979" style="fill: #0000ff; fill-opacity: 0.25; stroke: #0000ff; stroke-opacity: 0.25"/>
     <use xlink:href="#m1f66aed302" x="198.691085" y="226.42086" style="fill: #0000ff; fill-opacity: 0.25; stroke: #0000ff; stroke-opacity: 0.25"/>
    </g>
   </g>
   <g id="PathCollection_3">
    <defs>
     <path id="m9465779119" d="M 0 0.5 
C 0.132602 0.5 0.25979 0.447317 0.353553 0.353553 
C 0.447317 0.25979 0.5 0.132602 0.5 0 
C 0.5 -0.132602 0.447317 -0.25979 0.353553 -0.353553 
C 0.25979 -0.447317 0.132602 -0.5 0 -0.5 
C -0.132602 -0.5 -0.25979 -0.447317 -0.353553 -0.353553 
C -0.447317 -0.25979 -0.5 -0.132602 -0.5 0 
C -0.5 0.132602 -0.447317 0.25979 -0.353553 0.353553 
C -0.25979 0.447317 -0.132602 0.5 0 0.5 
z
" style="stroke: #000000; stroke-opacity: 0.25"/>
    </defs>
    <g clip-path="url(#p4c626bdb32)">
     <use xlink:href="#m9465779119" x="73.832727" y="295.488" style="fill-opacity: 0.25; stroke: #000000; stroke-opacity: 0.25"/>
     <use xlink:href="#m9465779119" x="116.618965" y="216.149113" style="fill-opacity: 0.25; stroke: #000000; stroke-opacity: 0.25"/>
     <use xlink:href="#m9465779119" x="228.911816" y="191.369888" style="fill-opacity: 0.25; stroke: #000000; stroke-opacity: 0.25"/>
     <use xlink:href="#m9465779119" x="229.711834" y="190.879662" style="fill-opacity: 0.25; stroke: #000000; stroke-opacity: 0.25"/>
     <use xlink:href="#m9465779119" x="341.600996" y="105.576884" style="fill-opacity: 0.25; stroke: #000000; stroke-opacity: 0.25"/>
     <use xlink:href="#m9465779119" x="181.459789" y="212.454476" style="fill-opacity: 0.25; stroke: #000000; stroke-opacity: 0.25"/>
     <use xlink:href="#m9465779119" x="342.905901" y="107.261142" style="fill-opacity: 0.25; stroke: #000000; stroke-opacity: 0.25"/>
     <use xlink:href="#m9465779119" x="398.487273" y="53.568" style="fill-opacity: 0.25; stroke: #000000; stroke-opacity: 0.25"/>
     <use xlink:href="#m9465779119" x="160.133093" y="236.639299" style="fill-opacity: 0.25; stroke: #000000; stroke-opacity: 0.25"/>
     <use xlink:href="#m9465779119" x="198.691085" y="212.710913" style="fill-opacity: 0.25; stroke: #000000; stroke-opacity: 0.25"/>
    </g>
   </g>
   <g id="PathCollection_4">
    <defs>
     <path id="m181421dce8" d="M 0 0.5 
C 0.132602 0.5 0.25979 0.447317 0.353553 0.353553 
C 0.447317 0.25979 0.5 0.132602 0.5 0 
C 0.5 -0.132602 0.447317 -0.25979 0.353553 -0.353553 
C 0.25979 -0.447317 0.132602 -0.5 0 -0.5 
C -0.132602 -0.5 -0.25979 -0.447317 -0.353553 -0.353553 
C -0.447317 -0.25979 -0.5 -0.132602 -0.5 0 
C -0.5 0.132602 -0.447317 0.25979 -0.353553 0.353553 
C -0.25979 0.447317 -0.132602 0.5 0 0.5 
z
" style="stroke: #ffff00; stroke-opacity: 0.25"/>
    </defs>
    <g clip-path="url(#p4c626bdb32)">
     <use xlink:href="#m181421dce8" x="73.832727" y="290.164154" style="fill: #ffff00; fill-opacity: 0.25; stroke: #ffff00; stroke-opacity: 0.25"/>
     <use xlink:href="#m181421dce8" x="116.618965" y="225.197212" style="fill: #ffff00; fill-opacity: 0.25; stroke: #ffff00; stroke-opacity: 0.25"/>
     <use xlink:href="#m181421dce8" x="228.911816" y="218.498853" style="fill: #ffff00; fill-opacity: 0.25; stroke: #ffff00; stroke-opacity: 0.25"/>
     <use xlink:href="#m181421dce8" x="229.711834" y="210.464306" style="fill: #ffff00; fill-opacity: 0.25; stroke: #ffff00; stroke-opacity: 0.25"/>
     <use xlink:href="#m181421dce8" x="341.600996" y="85.993982" style="fill: #ffff00; fill-opacity: 0.25; stroke: #ffff00; stroke-opacity: 0.25"/>
     <use xlink:href="#m181421dce8" x="181.459789" y="227.870284" style="fill: #ffff00; fill-opacity: 0.25; stroke: #ffff00; stroke-opacity: 0.25"/>
     <use xlink:href="#m181421dce8" x="342.905901" y="139.645314" style="fill: #ffff00; fill-opacity: 0.25; stroke: #ffff00; stroke-opacity: 0.25"/>
     <use xlink:href="#m181421dce8" x="398.487273" y="102.984296" style="fill: #ffff00; fill-opacity: 0.25; stroke: #ffff00; stroke-opacity: 0.25"/>
     <use xlink:href="#m181421dce8" x="160.133093" y="250.551678" style="fill: #ffff00; fill-opacity: 0.25; stroke: #ffff00; stroke-opacity: 0.25"/>
     <use xlink:href="#m181421dce8" x="198.691085" y="232.070826" style="fill: #ffff00; fill-opacity: 0.25; stroke: #ffff00; stroke-opacity: 0.25"/>
    </g>
   </g>
   <g id="matplotlib.axis_1">
    <g id="xtick_1">
     <g id="line2d_1">
      <defs>
       <path id="mcb5c272535" d="M 0 0 
L 0 3.5 
" style="stroke: #000000; stroke-width: 0.8"/>
      </defs>
      <g>
       <use xlink:href="#mcb5c272535" x="113.25624" y="307.584" style="stroke: #000000; stroke-width: 0.8"/>
      </g>
     </g>
     <g id="text_1">
      <!-- 0.2 -->
      <g transform="translate(105.304677 322.182437) scale(0.1 -0.1)">
       <defs>
        <path id="DejaVuSans-30" d="M 2034 4250 
Q 1547 4250 1301 3770 
Q 1056 3291 1056 2328 
Q 1056 1369 1301 889 
Q 1547 409 2034 409 
Q 2525 409 2770 889 
Q 3016 1369 3016 2328 
Q 3016 3291 2770 3770 
Q 2525 4250 2034 4250 
z
M 2034 4750 
Q 2819 4750 3233 4129 
Q 3647 3509 3647 2328 
Q 3647 1150 3233 529 
Q 2819 -91 2034 -91 
Q 1250 -91 836 529 
Q 422 1150 422 2328 
Q 422 3509 836 4129 
Q 1250 4750 2034 4750 
z
" transform="scale(0.015625)"/>
        <path id="DejaVuSans-2e" d="M 684 794 
L 1344 794 
L 1344 0 
L 684 0 
L 684 794 
z
" transform="scale(0.015625)"/>
        <path id="DejaVuSans-32" d="M 1228 531 
L 3431 531 
L 3431 0 
L 469 0 
L 469 531 
Q 828 903 1448 1529 
Q 2069 2156 2228 2338 
Q 2531 2678 2651 2914 
Q 2772 3150 2772 3378 
Q 2772 3750 2511 3984 
Q 2250 4219 1831 4219 
Q 1534 4219 1204 4116 
Q 875 4013 500 3803 
L 500 4441 
Q 881 4594 1212 4672 
Q 1544 4750 1819 4750 
Q 2544 4750 2975 4387 
Q 3406 4025 3406 3419 
Q 3406 3131 3298 2873 
Q 3191 2616 2906 2266 
Q 2828 2175 2409 1742 
Q 1991 1309 1228 531 
z
" transform="scale(0.015625)"/>
       </defs>
       <use xlink:href="#DejaVuSans-30"/>
       <use xlink:href="#DejaVuSans-2e" transform="translate(63.623047 0)"/>
       <use xlink:href="#DejaVuSans-32" transform="translate(95.410156 0)"/>
      </g>
     </g>
    </g>
    <g id="xtick_2">
     <g id="line2d_2">
      <g>
       <use xlink:href="#mcb5c272535" x="186.854942" y="307.584" style="stroke: #000000; stroke-width: 0.8"/>
      </g>
     </g>
     <g id="text_2">
      <!-- 0.4 -->
      <g transform="translate(178.903379 322.182437) scale(0.1 -0.1)">
       <defs>
        <path id="DejaVuSans-34" d="M 2419 4116 
L 825 1625 
L 2419 1625 
L 2419 4116 
z
M 2253 4666 
L 3047 4666 
L 3047 1625 
L 3713 1625 
L 3713 1100 
L 3047 1100 
L 3047 0 
L 2419 0 
L 2419 1100 
L 313 1100 
L 313 1709 
L 2253 4666 
z
" transform="scale(0.015625)"/>
       </defs>
       <use xlink:href="#DejaVuSans-30"/>
       <use xlink:href="#DejaVuSans-2e" transform="translate(63.623047 0)"/>
       <use xlink:href="#DejaVuSans-34" transform="translate(95.410156 0)"/>
      </g>
     </g>
    </g>
    <g id="xtick_3">
     <g id="line2d_3">
      <g>
       <use xlink:href="#mcb5c272535" x="260.453643" y="307.584" style="stroke: #000000; stroke-width: 0.8"/>
      </g>
     </g>
     <g id="text_3">
      <!-- 0.6 -->
      <g transform="translate(252.502081 322.182437) scale(0.1 -0.1)">
       <defs>
        <path id="DejaVuSans-36" d="M 2113 2584 
Q 1688 2584 1439 2293 
Q 1191 2003 1191 1497 
Q 1191 994 1439 701 
Q 1688 409 2113 409 
Q 2538 409 2786 701 
Q 3034 994 3034 1497 
Q 3034 2003 2786 2293 
Q 2538 2584 2113 2584 
z
M 3366 4563 
L 3366 3988 
Q 3128 4100 2886 4159 
Q 2644 4219 2406 4219 
Q 1781 4219 1451 3797 
Q 1122 3375 1075 2522 
Q 1259 2794 1537 2939 
Q 1816 3084 2150 3084 
Q 2853 3084 3261 2657 
Q 3669 2231 3669 1497 
Q 3669 778 3244 343 
Q 2819 -91 2113 -91 
Q 1303 -91 875 529 
Q 447 1150 447 2328 
Q 447 3434 972 4092 
Q 1497 4750 2381 4750 
Q 2619 4750 2861 4703 
Q 3103 4656 3366 4563 
z
" transform="scale(0.015625)"/>
       </defs>
       <use xlink:href="#DejaVuSans-30"/>
       <use xlink:href="#DejaVuSans-2e" transform="translate(63.623047 0)"/>
       <use xlink:href="#DejaVuSans-36" transform="translate(95.410156 0)"/>
      </g>
     </g>
    </g>
    <g id="xtick_4">
     <g id="line2d_4">
      <g>
       <use xlink:href="#mcb5c272535" x="334.052345" y="307.584" style="stroke: #000000; stroke-width: 0.8"/>
      </g>
     </g>
     <g id="text_4">
      <!-- 0.8 -->
      <g transform="translate(326.100783 322.182437) scale(0.1 -0.1)">
       <defs>
        <path id="DejaVuSans-38" d="M 2034 2216 
Q 1584 2216 1326 1975 
Q 1069 1734 1069 1313 
Q 1069 891 1326 650 
Q 1584 409 2034 409 
Q 2484 409 2743 651 
Q 3003 894 3003 1313 
Q 3003 1734 2745 1975 
Q 2488 2216 2034 2216 
z
M 1403 2484 
Q 997 2584 770 2862 
Q 544 3141 544 3541 
Q 544 4100 942 4425 
Q 1341 4750 2034 4750 
Q 2731 4750 3128 4425 
Q 3525 4100 3525 3541 
Q 3525 3141 3298 2862 
Q 3072 2584 2669 2484 
Q 3125 2378 3379 2068 
Q 3634 1759 3634 1313 
Q 3634 634 3220 271 
Q 2806 -91 2034 -91 
Q 1263 -91 848 271 
Q 434 634 434 1313 
Q 434 1759 690 2068 
Q 947 2378 1403 2484 
z
M 1172 3481 
Q 1172 3119 1398 2916 
Q 1625 2713 2034 2713 
Q 2441 2713 2670 2916 
Q 2900 3119 2900 3481 
Q 2900 3844 2670 4047 
Q 2441 4250 2034 4250 
Q 1625 4250 1398 4047 
Q 1172 3844 1172 3481 
z
" transform="scale(0.015625)"/>
       </defs>
       <use xlink:href="#DejaVuSans-30"/>
       <use xlink:href="#DejaVuSans-2e" transform="translate(63.623047 0)"/>
       <use xlink:href="#DejaVuSans-38" transform="translate(95.410156 0)"/>
      </g>
     </g>
    </g>
    <g id="xtick_5">
     <g id="line2d_5">
      <g>
       <use xlink:href="#mcb5c272535" x="407.651047" y="307.584" style="stroke: #000000; stroke-width: 0.8"/>
      </g>
     </g>
     <g id="text_5">
      <!-- 1.0 -->
      <g transform="translate(399.699485 322.182437) scale(0.1 -0.1)">
       <defs>
        <path id="DejaVuSans-31" d="M 794 531 
L 1825 531 
L 1825 4091 
L 703 3866 
L 703 4441 
L 1819 4666 
L 2450 4666 
L 2450 531 
L 3481 531 
L 3481 0 
L 794 0 
L 794 531 
z
" transform="scale(0.015625)"/>
       </defs>
       <use xlink:href="#DejaVuSans-31"/>
       <use xlink:href="#DejaVuSans-2e" transform="translate(63.623047 0)"/>
       <use xlink:href="#DejaVuSans-30" transform="translate(95.410156 0)"/>
      </g>
     </g>
    </g>
    <g id="text_6">
     <!-- datasize(*1e6) -->
     <g transform="translate(199.362344 335.860562) scale(0.1 -0.1)">
      <defs>
       <path id="DejaVuSans-64" d="M 2906 2969 
L 2906 4863 
L 3481 4863 
L 3481 0 
L 2906 0 
L 2906 525 
Q 2725 213 2448 61 
Q 2172 -91 1784 -91 
Q 1150 -91 751 415 
Q 353 922 353 1747 
Q 353 2572 751 3078 
Q 1150 3584 1784 3584 
Q 2172 3584 2448 3432 
Q 2725 3281 2906 2969 
z
M 947 1747 
Q 947 1113 1208 752 
Q 1469 391 1925 391 
Q 2381 391 2643 752 
Q 2906 1113 2906 1747 
Q 2906 2381 2643 2742 
Q 2381 3103 1925 3103 
Q 1469 3103 1208 2742 
Q 947 2381 947 1747 
z
" transform="scale(0.015625)"/>
       <path id="DejaVuSans-61" d="M 2194 1759 
Q 1497 1759 1228 1600 
Q 959 1441 959 1056 
Q 959 750 1161 570 
Q 1363 391 1709 391 
Q 2188 391 2477 730 
Q 2766 1069 2766 1631 
L 2766 1759 
L 2194 1759 
z
M 3341 1997 
L 3341 0 
L 2766 0 
L 2766 531 
Q 2569 213 2275 61 
Q 1981 -91 1556 -91 
Q 1019 -91 701 211 
Q 384 513 384 1019 
Q 384 1609 779 1909 
Q 1175 2209 1959 2209 
L 2766 2209 
L 2766 2266 
Q 2766 2663 2505 2880 
Q 2244 3097 1772 3097 
Q 1472 3097 1187 3025 
Q 903 2953 641 2809 
L 641 3341 
Q 956 3463 1253 3523 
Q 1550 3584 1831 3584 
Q 2591 3584 2966 3190 
Q 3341 2797 3341 1997 
z
" transform="scale(0.015625)"/>
       <path id="DejaVuSans-74" d="M 1172 4494 
L 1172 3500 
L 2356 3500 
L 2356 3053 
L 1172 3053 
L 1172 1153 
Q 1172 725 1289 603 
Q 1406 481 1766 481 
L 2356 481 
L 2356 0 
L 1766 0 
Q 1100 0 847 248 
Q 594 497 594 1153 
L 594 3053 
L 172 3053 
L 172 3500 
L 594 3500 
L 594 4494 
L 1172 4494 
z
" transform="scale(0.015625)"/>
       <path id="DejaVuSans-73" d="M 2834 3397 
L 2834 2853 
Q 2591 2978 2328 3040 
Q 2066 3103 1784 3103 
Q 1356 3103 1142 2972 
Q 928 2841 928 2578 
Q 928 2378 1081 2264 
Q 1234 2150 1697 2047 
L 1894 2003 
Q 2506 1872 2764 1633 
Q 3022 1394 3022 966 
Q 3022 478 2636 193 
Q 2250 -91 1575 -91 
Q 1294 -91 989 -36 
Q 684 19 347 128 
L 347 722 
Q 666 556 975 473 
Q 1284 391 1588 391 
Q 1994 391 2212 530 
Q 2431 669 2431 922 
Q 2431 1156 2273 1281 
Q 2116 1406 1581 1522 
L 1381 1569 
Q 847 1681 609 1914 
Q 372 2147 372 2553 
Q 372 3047 722 3315 
Q 1072 3584 1716 3584 
Q 2034 3584 2315 3537 
Q 2597 3491 2834 3397 
z
" transform="scale(0.015625)"/>
       <path id="DejaVuSans-69" d="M 603 3500 
L 1178 3500 
L 1178 0 
L 603 0 
L 603 3500 
z
M 603 4863 
L 1178 4863 
L 1178 4134 
L 603 4134 
L 603 4863 
z
" transform="scale(0.015625)"/>
       <path id="DejaVuSans-7a" d="M 353 3500 
L 3084 3500 
L 3084 2975 
L 922 459 
L 3084 459 
L 3084 0 
L 275 0 
L 275 525 
L 2438 3041 
L 353 3041 
L 353 3500 
z
" transform="scale(0.015625)"/>
       <path id="DejaVuSans-65" d="M 3597 1894 
L 3597 1613 
L 953 1613 
Q 991 1019 1311 708 
Q 1631 397 2203 397 
Q 2534 397 2845 478 
Q 3156 559 3463 722 
L 3463 178 
Q 3153 47 2828 -22 
Q 2503 -91 2169 -91 
Q 1331 -91 842 396 
Q 353 884 353 1716 
Q 353 2575 817 3079 
Q 1281 3584 2069 3584 
Q 2775 3584 3186 3129 
Q 3597 2675 3597 1894 
z
M 3022 2063 
Q 3016 2534 2758 2815 
Q 2500 3097 2075 3097 
Q 1594 3097 1305 2825 
Q 1016 2553 972 2059 
L 3022 2063 
z
" transform="scale(0.015625)"/>
       <path id="DejaVuSans-28" d="M 1984 4856 
Q 1566 4138 1362 3434 
Q 1159 2731 1159 2009 
Q 1159 1288 1364 580 
Q 1569 -128 1984 -844 
L 1484 -844 
Q 1016 -109 783 600 
Q 550 1309 550 2009 
Q 550 2706 781 3412 
Q 1013 4119 1484 4856 
L 1984 4856 
z
" transform="scale(0.015625)"/>
       <path id="DejaVuSans-2a" d="M 3009 3897 
L 1888 3291 
L 3009 2681 
L 2828 2375 
L 1778 3009 
L 1778 1831 
L 1422 1831 
L 1422 3009 
L 372 2375 
L 191 2681 
L 1313 3291 
L 191 3897 
L 372 4206 
L 1422 3572 
L 1422 4750 
L 1778 4750 
L 1778 3572 
L 2828 4206 
L 3009 3897 
z
" transform="scale(0.015625)"/>
       <path id="DejaVuSans-29" d="M 513 4856 
L 1013 4856 
Q 1481 4119 1714 3412 
Q 1947 2706 1947 2009 
Q 1947 1309 1714 600 
Q 1481 -109 1013 -844 
L 513 -844 
Q 928 -128 1133 580 
Q 1338 1288 1338 2009 
Q 1338 2731 1133 3434 
Q 928 4138 513 4856 
z
" transform="scale(0.015625)"/>
      </defs>
      <use xlink:href="#DejaVuSans-64"/>
      <use xlink:href="#DejaVuSans-61" transform="translate(63.476562 0)"/>
      <use xlink:href="#DejaVuSans-74" transform="translate(124.755859 0)"/>
      <use xlink:href="#DejaVuSans-61" transform="translate(163.964844 0)"/>
      <use xlink:href="#DejaVuSans-73" transform="translate(225.244141 0)"/>
      <use xlink:href="#DejaVuSans-69" transform="translate(277.34375 0)"/>
      <use xlink:href="#DejaVuSans-7a" transform="translate(305.126953 0)"/>
      <use xlink:href="#DejaVuSans-65" transform="translate(357.617188 0)"/>
      <use xlink:href="#DejaVuSans-28" transform="translate(419.140625 0)"/>
      <use xlink:href="#DejaVuSans-2a" transform="translate(458.154297 0)"/>
      <use xlink:href="#DejaVuSans-31" transform="translate(508.154297 0)"/>
      <use xlink:href="#DejaVuSans-65" transform="translate(571.777344 0)"/>
      <use xlink:href="#DejaVuSans-36" transform="translate(633.300781 0)"/>
      <use xlink:href="#DejaVuSans-29" transform="translate(696.923828 0)"/>
     </g>
    </g>
    <g id="text_7">
     <!-- 1e6 -->
     <g transform="translate(395.841875 334.860562) scale(0.1 -0.1)">
      <use xlink:href="#DejaVuSans-31"/>
      <use xlink:href="#DejaVuSans-65" transform="translate(63.623047 0)"/>
      <use xlink:href="#DejaVuSans-36" transform="translate(125.146484 0)"/>
     </g>
    </g>
   </g>
   <g id="matplotlib.axis_2">
    <g id="ytick_1">
     <g id="line2d_6">
      <defs>
       <path id="m4ae190c3d2" d="M 0 0 
L -3.5 0 
" style="stroke: #000000; stroke-width: 0.8"/>
      </defs>
      <g>
       <use xlink:href="#m4ae190c3d2" x="57.6" y="292.078857" style="stroke: #000000; stroke-width: 0.8"/>
      </g>
     </g>
     <g id="text_8">
      <!-- 0.025 -->
      <g transform="translate(21.971875 295.878076) scale(0.1 -0.1)">
       <defs>
        <path id="DejaVuSans-35" d="M 691 4666 
L 3169 4666 
L 3169 4134 
L 1269 4134 
L 1269 2991 
Q 1406 3038 1543 3061 
Q 1681 3084 1819 3084 
Q 2600 3084 3056 2656 
Q 3513 2228 3513 1497 
Q 3513 744 3044 326 
Q 2575 -91 1722 -91 
Q 1428 -91 1123 -41 
Q 819 9 494 109 
L 494 744 
Q 775 591 1075 516 
Q 1375 441 1709 441 
Q 2250 441 2565 725 
Q 2881 1009 2881 1497 
Q 2881 1984 2565 2268 
Q 2250 2553 1709 2553 
Q 1456 2553 1204 2497 
Q 953 2441 691 2322 
L 691 4666 
z
" transform="scale(0.015625)"/>
       </defs>
       <use xlink:href="#DejaVuSans-30"/>
       <use xlink:href="#DejaVuSans-2e" transform="translate(63.623047 0)"/>
       <use xlink:href="#DejaVuSans-30" transform="translate(95.410156 0)"/>
       <use xlink:href="#DejaVuSans-32" transform="translate(159.033203 0)"/>
       <use xlink:href="#DejaVuSans-35" transform="translate(222.65625 0)"/>
      </g>
     </g>
    </g>
    <g id="ytick_2">
     <g id="line2d_7">
      <g>
       <use xlink:href="#m4ae190c3d2" x="57.6" y="255.544455" style="stroke: #000000; stroke-width: 0.8"/>
      </g>
     </g>
     <g id="text_9">
      <!-- 0.050 -->
      <g transform="translate(21.971875 259.343674) scale(0.1 -0.1)">
       <use xlink:href="#DejaVuSans-30"/>
       <use xlink:href="#DejaVuSans-2e" transform="translate(63.623047 0)"/>
       <use xlink:href="#DejaVuSans-30" transform="translate(95.410156 0)"/>
       <use xlink:href="#DejaVuSans-35" transform="translate(159.033203 0)"/>
       <use xlink:href="#DejaVuSans-30" transform="translate(222.65625 0)"/>
      </g>
     </g>
    </g>
    <g id="ytick_3">
     <g id="line2d_8">
      <g>
       <use xlink:href="#m4ae190c3d2" x="57.6" y="219.010053" style="stroke: #000000; stroke-width: 0.8"/>
      </g>
     </g>
     <g id="text_10">
      <!-- 0.075 -->
      <g transform="translate(21.971875 222.809272) scale(0.1 -0.1)">
       <defs>
        <path id="DejaVuSans-37" d="M 525 4666 
L 3525 4666 
L 3525 4397 
L 1831 0 
L 1172 0 
L 2766 4134 
L 525 4134 
L 525 4666 
z
" transform="scale(0.015625)"/>
       </defs>
       <use xlink:href="#DejaVuSans-30"/>
       <use xlink:href="#DejaVuSans-2e" transform="translate(63.623047 0)"/>
       <use xlink:href="#DejaVuSans-30" transform="translate(95.410156 0)"/>
       <use xlink:href="#DejaVuSans-37" transform="translate(159.033203 0)"/>
       <use xlink:href="#DejaVuSans-35" transform="translate(222.65625 0)"/>
      </g>
     </g>
    </g>
    <g id="ytick_4">
     <g id="line2d_9">
      <g>
       <use xlink:href="#m4ae190c3d2" x="57.6" y="182.475651" style="stroke: #000000; stroke-width: 0.8"/>
      </g>
     </g>
     <g id="text_11">
      <!-- 0.100 -->
      <g transform="translate(21.971875 186.27487) scale(0.1 -0.1)">
       <use xlink:href="#DejaVuSans-30"/>
       <use xlink:href="#DejaVuSans-2e" transform="translate(63.623047 0)"/>
       <use xlink:href="#DejaVuSans-31" transform="translate(95.410156 0)"/>
       <use xlink:href="#DejaVuSans-30" transform="translate(159.033203 0)"/>
       <use xlink:href="#DejaVuSans-30" transform="translate(222.65625 0)"/>
      </g>
     </g>
    </g>
    <g id="ytick_5">
     <g id="line2d_10">
      <g>
       <use xlink:href="#m4ae190c3d2" x="57.6" y="145.941249" style="stroke: #000000; stroke-width: 0.8"/>
      </g>
     </g>
     <g id="text_12">
      <!-- 0.125 -->
      <g transform="translate(21.971875 149.740468) scale(0.1 -0.1)">
       <use xlink:href="#DejaVuSans-30"/>
       <use xlink:href="#DejaVuSans-2e" transform="translate(63.623047 0)"/>
       <use xlink:href="#DejaVuSans-31" transform="translate(95.410156 0)"/>
       <use xlink:href="#DejaVuSans-32" transform="translate(159.033203 0)"/>
       <use xlink:href="#DejaVuSans-35" transform="translate(222.65625 0)"/>
      </g>
     </g>
    </g>
    <g id="ytick_6">
     <g id="line2d_11">
      <g>
       <use xlink:href="#m4ae190c3d2" x="57.6" y="109.406847" style="stroke: #000000; stroke-width: 0.8"/>
      </g>
     </g>
     <g id="text_13">
      <!-- 0.150 -->
      <g transform="translate(21.971875 113.206066) scale(0.1 -0.1)">
       <use xlink:href="#DejaVuSans-30"/>
       <use xlink:href="#DejaVuSans-2e" transform="translate(63.623047 0)"/>
       <use xlink:href="#DejaVuSans-31" transform="translate(95.410156 0)"/>
       <use xlink:href="#DejaVuSans-35" transform="translate(159.033203 0)"/>
       <use xlink:href="#DejaVuSans-30" transform="translate(222.65625 0)"/>
      </g>
     </g>
    </g>
    <g id="ytick_7">
     <g id="line2d_12">
      <g>
       <use xlink:href="#m4ae190c3d2" x="57.6" y="72.872445" style="stroke: #000000; stroke-width: 0.8"/>
      </g>
     </g>
     <g id="text_14">
      <!-- 0.175 -->
      <g transform="translate(21.971875 76.671664) scale(0.1 -0.1)">
       <use xlink:href="#DejaVuSans-30"/>
       <use xlink:href="#DejaVuSans-2e" transform="translate(63.623047 0)"/>
       <use xlink:href="#DejaVuSans-31" transform="translate(95.410156 0)"/>
       <use xlink:href="#DejaVuSans-37" transform="translate(159.033203 0)"/>
       <use xlink:href="#DejaVuSans-35" transform="translate(222.65625 0)"/>
      </g>
     </g>
    </g>
    <g id="text_15">
     <!-- runtime(/s) -->
     <g transform="translate(15.892187 202.407688) rotate(-90) scale(0.1 -0.1)">
      <defs>
       <path id="DejaVuSans-72" d="M 2631 2963 
Q 2534 3019 2420 3045 
Q 2306 3072 2169 3072 
Q 1681 3072 1420 2755 
Q 1159 2438 1159 1844 
L 1159 0 
L 581 0 
L 581 3500 
L 1159 3500 
L 1159 2956 
Q 1341 3275 1631 3429 
Q 1922 3584 2338 3584 
Q 2397 3584 2469 3576 
Q 2541 3569 2628 3553 
L 2631 2963 
z
" transform="scale(0.015625)"/>
       <path id="DejaVuSans-75" d="M 544 1381 
L 544 3500 
L 1119 3500 
L 1119 1403 
Q 1119 906 1312 657 
Q 1506 409 1894 409 
Q 2359 409 2629 706 
Q 2900 1003 2900 1516 
L 2900 3500 
L 3475 3500 
L 3475 0 
L 2900 0 
L 2900 538 
Q 2691 219 2414 64 
Q 2138 -91 1772 -91 
Q 1169 -91 856 284 
Q 544 659 544 1381 
z
M 1991 3584 
L 1991 3584 
z
" transform="scale(0.015625)"/>
       <path id="DejaVuSans-6e" d="M 3513 2113 
L 3513 0 
L 2938 0 
L 2938 2094 
Q 2938 2591 2744 2837 
Q 2550 3084 2163 3084 
Q 1697 3084 1428 2787 
Q 1159 2491 1159 1978 
L 1159 0 
L 581 0 
L 581 3500 
L 1159 3500 
L 1159 2956 
Q 1366 3272 1645 3428 
Q 1925 3584 2291 3584 
Q 2894 3584 3203 3211 
Q 3513 2838 3513 2113 
z
" transform="scale(0.015625)"/>
       <path id="DejaVuSans-6d" d="M 3328 2828 
Q 3544 3216 3844 3400 
Q 4144 3584 4550 3584 
Q 5097 3584 5394 3201 
Q 5691 2819 5691 2113 
L 5691 0 
L 5113 0 
L 5113 2094 
Q 5113 2597 4934 2840 
Q 4756 3084 4391 3084 
Q 3944 3084 3684 2787 
Q 3425 2491 3425 1978 
L 3425 0 
L 2847 0 
L 2847 2094 
Q 2847 2600 2669 2842 
Q 2491 3084 2119 3084 
Q 1678 3084 1418 2786 
Q 1159 2488 1159 1978 
L 1159 0 
L 581 0 
L 581 3500 
L 1159 3500 
L 1159 2956 
Q 1356 3278 1631 3431 
Q 1906 3584 2284 3584 
Q 2666 3584 2933 3390 
Q 3200 3197 3328 2828 
z
" transform="scale(0.015625)"/>
       <path id="DejaVuSans-2f" d="M 1625 4666 
L 2156 4666 
L 531 -594 
L 0 -594 
L 1625 4666 
z
" transform="scale(0.015625)"/>
      </defs>
      <use xlink:href="#DejaVuSans-72"/>
      <use xlink:href="#DejaVuSans-75" transform="translate(41.113281 0)"/>
      <use xlink:href="#DejaVuSans-6e" transform="translate(104.492188 0)"/>
      <use xlink:href="#DejaVuSans-74" transform="translate(167.871094 0)"/>
      <use xlink:href="#DejaVuSans-69" transform="translate(207.080078 0)"/>
      <use xlink:href="#DejaVuSans-6d" transform="translate(234.863281 0)"/>
      <use xlink:href="#DejaVuSans-65" transform="translate(332.275391 0)"/>
      <use xlink:href="#DejaVuSans-28" transform="translate(393.798828 0)"/>
      <use xlink:href="#DejaVuSans-2f" transform="translate(432.8125 0)"/>
      <use xlink:href="#DejaVuSans-73" transform="translate(466.503906 0)"/>
      <use xlink:href="#DejaVuSans-29" transform="translate(518.603516 0)"/>
     </g>
    </g>
   </g>
   <g id="line2d_13">
    <path d="M 73.832727 294.966957 
L 88.06046 285.998659 
L 104.904627 275.111385 
L 124.395035 262.24288 
L 146.556709 247.338816 
L 171.411726 230.350589 
L 198.978856 211.234871 
L 229.275025 189.952106 
L 262.315691 166.465855 
L 298.114835 140.742492 
L 336.685339 112.750709 
L 378.039345 82.461053 
L 398.486905 67.388932 
L 398.486905 67.388932 
" clip-path="url(#p4c626bdb32)" style="fill: none; stroke: #ff0000; stroke-width: 1.5; stroke-linecap: square"/>
   </g>
   <g id="line2d_14">
    <path d="M 73.832727 291.366017 
L 88.654402 282.942416 
L 106.289755 272.657112 
L 126.768962 260.449809 
L 150.117782 246.267786 
L 176.357927 230.064625 
L 205.508165 211.798813 
L 237.585791 191.432282 
L 272.605525 168.930707 
L 310.581351 144.26202 
L 351.525781 117.396638 
L 395.45059 88.306787 
L 398.486905 86.286557 
L 398.486905 86.286557 
" clip-path="url(#p4c626bdb32)" style="fill: none; stroke: #0000ff; stroke-width: 1.5; stroke-linecap: square"/>
   </g>
   <g id="line2d_15">
    <path d="M 73.832727 282.356964 
L 88.321736 273.64182 
L 105.513288 263.034748 
L 125.437193 250.474529 
L 148.118841 235.907579 
L 173.579944 219.286459 
L 201.839269 200.568705 
L 232.914113 179.71533 
L 266.819563 156.690917 
L 303.569235 131.462827 
L 343.176376 104.0002 
L 385.652395 74.274771 
L 398.486905 65.242595 
L 398.486905 65.242595 
" clip-path="url(#p4c626bdb32)" style="fill: none; stroke: #000000; stroke-width: 1.5; stroke-linecap: square"/>
   </g>
   <g id="line2d_16">
    <path d="M 73.832727 286.993344 
L 89.054043 278.883513 
L 107.225562 268.943054 
L 128.378565 257.112201 
L 152.538811 243.339336 
L 179.728011 227.579076 
L 209.965302 209.790667 
L 243.267243 189.937426 
L 279.648921 167.98568 
L 319.124321 143.904211 
L 361.705586 117.66446 
L 398.486905 94.806027 
L 398.486905 94.806027 
" clip-path="url(#p4c626bdb32)" style="fill: none; stroke: #ffff00; stroke-width: 1.5; stroke-linecap: square"/>
   </g>
   <g id="patch_3">
    <path d="M 57.6 307.584 
L 57.6 41.472 
" style="fill: none; stroke: #000000; stroke-width: 0.8; stroke-linejoin: miter; stroke-linecap: square"/>
   </g>
   <g id="patch_4">
    <path d="M 414.72 307.584 
L 414.72 41.472 
" style="fill: none; stroke: #000000; stroke-width: 0.8; stroke-linejoin: miter; stroke-linecap: square"/>
   </g>
   <g id="patch_5">
    <path d="M 57.6 307.584 
L 414.72 307.584 
" style="fill: none; stroke: #000000; stroke-width: 0.8; stroke-linejoin: miter; stroke-linecap: square"/>
   </g>
   <g id="patch_6">
    <path d="M 57.6 41.472 
L 414.72 41.472 
" style="fill: none; stroke: #000000; stroke-width: 0.8; stroke-linejoin: miter; stroke-linecap: square"/>
   </g>
   <g id="legend_1">
    <g id="patch_7">
     <path d="M 64.6 109.297 
L 302.65 109.297 
Q 304.65 109.297 304.65 107.297 
L 304.65 48.472 
Q 304.65 46.472 302.65 46.472 
L 64.6 46.472 
Q 62.6 46.472 62.6 48.472 
L 62.6 107.297 
Q 62.6 109.297 64.6 109.297 
z
" style="fill: #ffffff; opacity: 0.8; stroke: #cccccc; stroke-linejoin: miter"/>
    </g>
    <g id="line2d_17">
     <path d="M 66.6 54.570437 
L 76.6 54.570437 
L 86.6 54.570437 
" style="fill: none; stroke: #ff0000; stroke-width: 1.5; stroke-linecap: square"/>
    </g>
    <g id="text_16">
     <!-- n-t_function_of_quick_sort_recurision -->
     <g transform="translate(94.6 58.070437) scale(0.1 -0.1)">
      <defs>
       <path id="DejaVuSans-2d" d="M 313 2009 
L 1997 2009 
L 1997 1497 
L 313 1497 
L 313 2009 
z
" transform="scale(0.015625)"/>
       <path id="DejaVuSans-5f" d="M 3263 -1063 
L 3263 -1509 
L -63 -1509 
L -63 -1063 
L 3263 -1063 
z
" transform="scale(0.015625)"/>
       <path id="DejaVuSans-66" d="M 2375 4863 
L 2375 4384 
L 1825 4384 
Q 1516 4384 1395 4259 
Q 1275 4134 1275 3809 
L 1275 3500 
L 2222 3500 
L 2222 3053 
L 1275 3053 
L 1275 0 
L 697 0 
L 697 3053 
L 147 3053 
L 147 3500 
L 697 3500 
L 697 3744 
Q 697 4328 969 4595 
Q 1241 4863 1831 4863 
L 2375 4863 
z
" transform="scale(0.015625)"/>
       <path id="DejaVuSans-63" d="M 3122 3366 
L 3122 2828 
Q 2878 2963 2633 3030 
Q 2388 3097 2138 3097 
Q 1578 3097 1268 2742 
Q 959 2388 959 1747 
Q 959 1106 1268 751 
Q 1578 397 2138 397 
Q 2388 397 2633 464 
Q 2878 531 3122 666 
L 3122 134 
Q 2881 22 2623 -34 
Q 2366 -91 2075 -91 
Q 1284 -91 818 406 
Q 353 903 353 1747 
Q 353 2603 823 3093 
Q 1294 3584 2113 3584 
Q 2378 3584 2631 3529 
Q 2884 3475 3122 3366 
z
" transform="scale(0.015625)"/>
       <path id="DejaVuSans-6f" d="M 1959 3097 
Q 1497 3097 1228 2736 
Q 959 2375 959 1747 
Q 959 1119 1226 758 
Q 1494 397 1959 397 
Q 2419 397 2687 759 
Q 2956 1122 2956 1747 
Q 2956 2369 2687 2733 
Q 2419 3097 1959 3097 
z
M 1959 3584 
Q 2709 3584 3137 3096 
Q 3566 2609 3566 1747 
Q 3566 888 3137 398 
Q 2709 -91 1959 -91 
Q 1206 -91 779 398 
Q 353 888 353 1747 
Q 353 2609 779 3096 
Q 1206 3584 1959 3584 
z
" transform="scale(0.015625)"/>
       <path id="DejaVuSans-71" d="M 947 1747 
Q 947 1113 1208 752 
Q 1469 391 1925 391 
Q 2381 391 2643 752 
Q 2906 1113 2906 1747 
Q 2906 2381 2643 2742 
Q 2381 3103 1925 3103 
Q 1469 3103 1208 2742 
Q 947 2381 947 1747 
z
M 2906 525 
Q 2725 213 2448 61 
Q 2172 -91 1784 -91 
Q 1150 -91 751 415 
Q 353 922 353 1747 
Q 353 2572 751 3078 
Q 1150 3584 1784 3584 
Q 2172 3584 2448 3432 
Q 2725 3281 2906 2969 
L 2906 3500 
L 3481 3500 
L 3481 -1331 
L 2906 -1331 
L 2906 525 
z
" transform="scale(0.015625)"/>
       <path id="DejaVuSans-6b" d="M 581 4863 
L 1159 4863 
L 1159 1991 
L 2875 3500 
L 3609 3500 
L 1753 1863 
L 3688 0 
L 2938 0 
L 1159 1709 
L 1159 0 
L 581 0 
L 581 4863 
z
" transform="scale(0.015625)"/>
      </defs>
      <use xlink:href="#DejaVuSans-6e"/>
      <use xlink:href="#DejaVuSans-2d" transform="translate(63.378906 0)"/>
      <use xlink:href="#DejaVuSans-74" transform="translate(99.462891 0)"/>
      <use xlink:href="#DejaVuSans-5f" transform="translate(138.671875 0)"/>
      <use xlink:href="#DejaVuSans-66" transform="translate(188.671875 0)"/>
      <use xlink:href="#DejaVuSans-75" transform="translate(223.876953 0)"/>
      <use xlink:href="#DejaVuSans-6e" transform="translate(287.255859 0)"/>
      <use xlink:href="#DejaVuSans-63" transform="translate(350.634766 0)"/>
      <use xlink:href="#DejaVuSans-74" transform="translate(405.615234 0)"/>
      <use xlink:href="#DejaVuSans-69" transform="translate(444.824219 0)"/>
      <use xlink:href="#DejaVuSans-6f" transform="translate(472.607422 0)"/>
      <use xlink:href="#DejaVuSans-6e" transform="translate(533.789062 0)"/>
      <use xlink:href="#DejaVuSans-5f" transform="translate(597.167969 0)"/>
      <use xlink:href="#DejaVuSans-6f" transform="translate(647.167969 0)"/>
      <use xlink:href="#DejaVuSans-66" transform="translate(708.349609 0)"/>
      <use xlink:href="#DejaVuSans-5f" transform="translate(743.554688 0)"/>
      <use xlink:href="#DejaVuSans-71" transform="translate(793.554688 0)"/>
      <use xlink:href="#DejaVuSans-75" transform="translate(857.03125 0)"/>
      <use xlink:href="#DejaVuSans-69" transform="translate(920.410156 0)"/>
      <use xlink:href="#DejaVuSans-63" transform="translate(948.193359 0)"/>
      <use xlink:href="#DejaVuSans-6b" transform="translate(1003.173828 0)"/>
      <use xlink:href="#DejaVuSans-5f" transform="translate(1061.083984 0)"/>
      <use xlink:href="#DejaVuSans-73" transform="translate(1111.083984 0)"/>
      <use xlink:href="#DejaVuSans-6f" transform="translate(1163.183594 0)"/>
      <use xlink:href="#DejaVuSans-72" transform="translate(1224.365234 0)"/>
      <use xlink:href="#DejaVuSans-74" transform="translate(1265.478516 0)"/>
      <use xlink:href="#DejaVuSans-5f" transform="translate(1304.6875 0)"/>
      <use xlink:href="#DejaVuSans-72" transform="translate(1354.6875 0)"/>
      <use xlink:href="#DejaVuSans-65" transform="translate(1393.550781 0)"/>
      <use xlink:href="#DejaVuSans-63" transform="translate(1455.074219 0)"/>
      <use xlink:href="#DejaVuSans-75" transform="translate(1510.054688 0)"/>
      <use xlink:href="#DejaVuSans-72" transform="translate(1573.433594 0)"/>
      <use xlink:href="#DejaVuSans-69" transform="translate(1614.546875 0)"/>
      <use xlink:href="#DejaVuSans-73" transform="translate(1642.330078 0)"/>
      <use xlink:href="#DejaVuSans-69" transform="translate(1694.429688 0)"/>
      <use xlink:href="#DejaVuSans-6f" transform="translate(1722.212891 0)"/>
      <use xlink:href="#DejaVuSans-6e" transform="translate(1783.394531 0)"/>
     </g>
    </g>
    <g id="line2d_18">
     <path d="M 66.6 69.526687 
L 76.6 69.526687 
L 86.6 69.526687 
" style="fill: none; stroke: #0000ff; stroke-width: 1.5; stroke-linecap: square"/>
    </g>
    <g id="text_17">
     <!-- n-t_function_of_quick_sort_not_recurision -->
     <g transform="translate(94.6 73.026687) scale(0.1 -0.1)">
      <use xlink:href="#DejaVuSans-6e"/>
      <use xlink:href="#DejaVuSans-2d" transform="translate(63.378906 0)"/>
      <use xlink:href="#DejaVuSans-74" transform="translate(99.462891 0)"/>
      <use xlink:href="#DejaVuSans-5f" transform="translate(138.671875 0)"/>
      <use xlink:href="#DejaVuSans-66" transform="translate(188.671875 0)"/>
      <use xlink:href="#DejaVuSans-75" transform="translate(223.876953 0)"/>
      <use xlink:href="#DejaVuSans-6e" transform="translate(287.255859 0)"/>
      <use xlink:href="#DejaVuSans-63" transform="translate(350.634766 0)"/>
      <use xlink:href="#DejaVuSans-74" transform="translate(405.615234 0)"/>
      <use xlink:href="#DejaVuSans-69" transform="translate(444.824219 0)"/>
      <use xlink:href="#DejaVuSans-6f" transform="translate(472.607422 0)"/>
      <use xlink:href="#DejaVuSans-6e" transform="translate(533.789062 0)"/>
      <use xlink:href="#DejaVuSans-5f" transform="translate(597.167969 0)"/>
      <use xlink:href="#DejaVuSans-6f" transform="translate(647.167969 0)"/>
      <use xlink:href="#DejaVuSans-66" transform="translate(708.349609 0)"/>
      <use xlink:href="#DejaVuSans-5f" transform="translate(743.554688 0)"/>
      <use xlink:href="#DejaVuSans-71" transform="translate(793.554688 0)"/>
      <use xlink:href="#DejaVuSans-75" transform="translate(857.03125 0)"/>
      <use xlink:href="#DejaVuSans-69" transform="translate(920.410156 0)"/>
      <use xlink:href="#DejaVuSans-63" transform="translate(948.193359 0)"/>
      <use xlink:href="#DejaVuSans-6b" transform="translate(1003.173828 0)"/>
      <use xlink:href="#DejaVuSans-5f" transform="translate(1061.083984 0)"/>
      <use xlink:href="#DejaVuSans-73" transform="translate(1111.083984 0)"/>
      <use xlink:href="#DejaVuSans-6f" transform="translate(1163.183594 0)"/>
      <use xlink:href="#DejaVuSans-72" transform="translate(1224.365234 0)"/>
      <use xlink:href="#DejaVuSans-74" transform="translate(1265.478516 0)"/>
      <use xlink:href="#DejaVuSans-5f" transform="translate(1304.6875 0)"/>
      <use xlink:href="#DejaVuSans-6e" transform="translate(1354.6875 0)"/>
      <use xlink:href="#DejaVuSans-6f" transform="translate(1418.066406 0)"/>
      <use xlink:href="#DejaVuSans-74" transform="translate(1479.248047 0)"/>
      <use xlink:href="#DejaVuSans-5f" transform="translate(1518.457031 0)"/>
      <use xlink:href="#DejaVuSans-72" transform="translate(1568.457031 0)"/>
      <use xlink:href="#DejaVuSans-65" transform="translate(1607.320312 0)"/>
      <use xlink:href="#DejaVuSans-63" transform="translate(1668.84375 0)"/>
      <use xlink:href="#DejaVuSans-75" transform="translate(1723.824219 0)"/>
      <use xlink:href="#DejaVuSans-72" transform="translate(1787.203125 0)"/>
      <use xlink:href="#DejaVuSans-69" transform="translate(1828.316406 0)"/>
      <use xlink:href="#DejaVuSans-73" transform="translate(1856.099609 0)"/>
      <use xlink:href="#DejaVuSans-69" transform="translate(1908.199219 0)"/>
      <use xlink:href="#DejaVuSans-6f" transform="translate(1935.982422 0)"/>
      <use xlink:href="#DejaVuSans-6e" transform="translate(1997.164062 0)"/>
     </g>
    </g>
    <g id="line2d_19">
     <path d="M 66.6 84.482937 
L 76.6 84.482937 
L 86.6 84.482937 
" style="fill: none; stroke: #000000; stroke-width: 1.5; stroke-linecap: square"/>
    </g>
    <g id="text_18">
     <!-- n-t_function_of_merge_sort_not_parallel -->
     <g transform="translate(94.6 87.982937) scale(0.1 -0.1)">
      <defs>
       <path id="DejaVuSans-67" d="M 2906 1791 
Q 2906 2416 2648 2759 
Q 2391 3103 1925 3103 
Q 1463 3103 1205 2759 
Q 947 2416 947 1791 
Q 947 1169 1205 825 
Q 1463 481 1925 481 
Q 2391 481 2648 825 
Q 2906 1169 2906 1791 
z
M 3481 434 
Q 3481 -459 3084 -895 
Q 2688 -1331 1869 -1331 
Q 1566 -1331 1297 -1286 
Q 1028 -1241 775 -1147 
L 775 -588 
Q 1028 -725 1275 -790 
Q 1522 -856 1778 -856 
Q 2344 -856 2625 -561 
Q 2906 -266 2906 331 
L 2906 616 
Q 2728 306 2450 153 
Q 2172 0 1784 0 
Q 1141 0 747 490 
Q 353 981 353 1791 
Q 353 2603 747 3093 
Q 1141 3584 1784 3584 
Q 2172 3584 2450 3431 
Q 2728 3278 2906 2969 
L 2906 3500 
L 3481 3500 
L 3481 434 
z
" transform="scale(0.015625)"/>
       <path id="DejaVuSans-70" d="M 1159 525 
L 1159 -1331 
L 581 -1331 
L 581 3500 
L 1159 3500 
L 1159 2969 
Q 1341 3281 1617 3432 
Q 1894 3584 2278 3584 
Q 2916 3584 3314 3078 
Q 3713 2572 3713 1747 
Q 3713 922 3314 415 
Q 2916 -91 2278 -91 
Q 1894 -91 1617 61 
Q 1341 213 1159 525 
z
M 3116 1747 
Q 3116 2381 2855 2742 
Q 2594 3103 2138 3103 
Q 1681 3103 1420 2742 
Q 1159 2381 1159 1747 
Q 1159 1113 1420 752 
Q 1681 391 2138 391 
Q 2594 391 2855 752 
Q 3116 1113 3116 1747 
z
" transform="scale(0.015625)"/>
       <path id="DejaVuSans-6c" d="M 603 4863 
L 1178 4863 
L 1178 0 
L 603 0 
L 603 4863 
z
" transform="scale(0.015625)"/>
      </defs>
      <use xlink:href="#DejaVuSans-6e"/>
      <use xlink:href="#DejaVuSans-2d" transform="translate(63.378906 0)"/>
      <use xlink:href="#DejaVuSans-74" transform="translate(99.462891 0)"/>
      <use xlink:href="#DejaVuSans-5f" transform="translate(138.671875 0)"/>
      <use xlink:href="#DejaVuSans-66" transform="translate(188.671875 0)"/>
      <use xlink:href="#DejaVuSans-75" transform="translate(223.876953 0)"/>
      <use xlink:href="#DejaVuSans-6e" transform="translate(287.255859 0)"/>
      <use xlink:href="#DejaVuSans-63" transform="translate(350.634766 0)"/>
      <use xlink:href="#DejaVuSans-74" transform="translate(405.615234 0)"/>
      <use xlink:href="#DejaVuSans-69" transform="translate(444.824219 0)"/>
      <use xlink:href="#DejaVuSans-6f" transform="translate(472.607422 0)"/>
      <use xlink:href="#DejaVuSans-6e" transform="translate(533.789062 0)"/>
      <use xlink:href="#DejaVuSans-5f" transform="translate(597.167969 0)"/>
      <use xlink:href="#DejaVuSans-6f" transform="translate(647.167969 0)"/>
      <use xlink:href="#DejaVuSans-66" transform="translate(708.349609 0)"/>
      <use xlink:href="#DejaVuSans-5f" transform="translate(743.554688 0)"/>
      <use xlink:href="#DejaVuSans-6d" transform="translate(793.554688 0)"/>
      <use xlink:href="#DejaVuSans-65" transform="translate(890.966797 0)"/>
      <use xlink:href="#DejaVuSans-72" transform="translate(952.490234 0)"/>
      <use xlink:href="#DejaVuSans-67" transform="translate(991.853516 0)"/>
      <use xlink:href="#DejaVuSans-65" transform="translate(1055.330078 0)"/>
      <use xlink:href="#DejaVuSans-5f" transform="translate(1116.853516 0)"/>
      <use xlink:href="#DejaVuSans-73" transform="translate(1166.853516 0)"/>
      <use xlink:href="#DejaVuSans-6f" transform="translate(1218.953125 0)"/>
      <use xlink:href="#DejaVuSans-72" transform="translate(1280.134766 0)"/>
      <use xlink:href="#DejaVuSans-74" transform="translate(1321.248047 0)"/>
      <use xlink:href="#DejaVuSans-5f" transform="translate(1360.457031 0)"/>
      <use xlink:href="#DejaVuSans-6e" transform="translate(1410.457031 0)"/>
      <use xlink:href="#DejaVuSans-6f" transform="translate(1473.835938 0)"/>
      <use xlink:href="#DejaVuSans-74" transform="translate(1535.017578 0)"/>
      <use xlink:href="#DejaVuSans-5f" transform="translate(1574.226562 0)"/>
      <use xlink:href="#DejaVuSans-70" transform="translate(1624.226562 0)"/>
      <use xlink:href="#DejaVuSans-61" transform="translate(1687.703125 0)"/>
      <use xlink:href="#DejaVuSans-72" transform="translate(1748.982422 0)"/>
      <use xlink:href="#DejaVuSans-61" transform="translate(1790.095703 0)"/>
      <use xlink:href="#DejaVuSans-6c" transform="translate(1851.375 0)"/>
      <use xlink:href="#DejaVuSans-6c" transform="translate(1879.158203 0)"/>
      <use xlink:href="#DejaVuSans-65" transform="translate(1906.941406 0)"/>
      <use xlink:href="#DejaVuSans-6c" transform="translate(1968.464844 0)"/>
     </g>
    </g>
    <g id="line2d_20">
     <path d="M 66.6 99.439187 
L 76.6 99.439187 
L 86.6 99.439187 
" style="fill: none; stroke: #ffff00; stroke-width: 1.5; stroke-linecap: square"/>
    </g>
    <g id="text_19">
     <!-- n-t_function_of_merge_sort_parallel -->
     <g transform="translate(94.6 102.939187) scale(0.1 -0.1)">
      <use xlink:href="#DejaVuSans-6e"/>
      <use xlink:href="#DejaVuSans-2d" transform="translate(63.378906 0)"/>
      <use xlink:href="#DejaVuSans-74" transform="translate(99.462891 0)"/>
      <use xlink:href="#DejaVuSans-5f" transform="translate(138.671875 0)"/>
      <use xlink:href="#DejaVuSans-66" transform="translate(188.671875 0)"/>
      <use xlink:href="#DejaVuSans-75" transform="translate(223.876953 0)"/>
      <use xlink:href="#DejaVuSans-6e" transform="translate(287.255859 0)"/>
      <use xlink:href="#DejaVuSans-63" transform="translate(350.634766 0)"/>
      <use xlink:href="#DejaVuSans-74" transform="translate(405.615234 0)"/>
      <use xlink:href="#DejaVuSans-69" transform="translate(444.824219 0)"/>
      <use xlink:href="#DejaVuSans-6f" transform="translate(472.607422 0)"/>
      <use xlink:href="#DejaVuSans-6e" transform="translate(533.789062 0)"/>
      <use xlink:href="#DejaVuSans-5f" transform="translate(597.167969 0)"/>
      <use xlink:href="#DejaVuSans-6f" transform="translate(647.167969 0)"/>
      <use xlink:href="#DejaVuSans-66" transform="translate(708.349609 0)"/>
      <use xlink:href="#DejaVuSans-5f" transform="translate(743.554688 0)"/>
      <use xlink:href="#DejaVuSans-6d" transform="translate(793.554688 0)"/>
      <use xlink:href="#DejaVuSans-65" transform="translate(890.966797 0)"/>
      <use xlink:href="#DejaVuSans-72" transform="translate(952.490234 0)"/>
      <use xlink:href="#DejaVuSans-67" transform="translate(991.853516 0)"/>
      <use xlink:href="#DejaVuSans-65" transform="translate(1055.330078 0)"/>
      <use xlink:href="#DejaVuSans-5f" transform="translate(1116.853516 0)"/>
      <use xlink:href="#DejaVuSans-73" transform="translate(1166.853516 0)"/>
      <use xlink:href="#DejaVuSans-6f" transform="translate(1218.953125 0)"/>
      <use xlink:href="#DejaVuSans-72" transform="translate(1280.134766 0)"/>
      <use xlink:href="#DejaVuSans-74" transform="translate(1321.248047 0)"/>
      <use xlink:href="#DejaVuSans-5f" transform="translate(1360.457031 0)"/>
      <use xlink:href="#DejaVuSans-70" transform="translate(1410.457031 0)"/>
      <use xlink:href="#DejaVuSans-61" transform="translate(1473.933594 0)"/>
      <use xlink:href="#DejaVuSans-72" transform="translate(1535.212891 0)"/>
      <use xlink:href="#DejaVuSans-61" transform="translate(1576.326172 0)"/>
      <use xlink:href="#DejaVuSans-6c" transform="translate(1637.605469 0)"/>
      <use xlink:href="#DejaVuSans-6c" transform="translate(1665.388672 0)"/>
      <use xlink:href="#DejaVuSans-65" transform="translate(1693.171875 0)"/>
      <use xlink:href="#DejaVuSans-6c" transform="translate(1754.695312 0)"/>
     </g>
    </g>
   </g>
  </g>
 </g>
 <defs>
  <clipPath id="p4c626bdb32">
   <rect x="57.6" y="41.472" width="357.12" height="266.112"/>
  </clipPath>
 </defs>
</svg>
